<svg width="93" height="47" viewBox="0 0 93 47" fill="none" xmlns="http://www.w3.org/2000/svg">
<path d="M14.2695 18H11.3047L3.69922 5.89453V18H0.734375V0.9375H3.69922L11.3281 13.0898V0.9375H14.2695V18ZM27.5352 14.0273H20.9258L19.543 18H16.4609L22.9062 0.9375H25.5664L32.0234 18H28.9297L27.5352 14.0273ZM21.7578 11.6367H26.7031L24.2305 4.55859L21.7578 11.6367ZM46.7305 12.4453C46.5586 14.2656 45.8867 15.6875 44.7148 16.7109C43.543 17.7266 41.9844 18.2344 40.0391 18.2344C38.6797 18.2344 37.4805 17.9141 36.4414 17.2734C35.4102 16.625 34.6133 15.707 34.0508 14.5195C33.4883 13.332 33.1953 11.9531 33.1719 10.3828V8.78906C33.1719 7.17969 33.457 5.76172 34.0273 4.53516C34.5977 3.30859 35.4141 2.36328 36.4766 1.69922C37.5469 1.03516 38.7812 0.703125 40.1797 0.703125C42.0625 0.703125 43.5781 1.21484 44.7266 2.23828C45.875 3.26172 46.543 4.70703 46.7305 6.57422H43.7773C43.6367 5.34766 43.2773 4.46484 42.6992 3.92578C42.1289 3.37891 41.2891 3.10547 40.1797 3.10547C38.8906 3.10547 37.8984 3.57812 37.2031 4.52344C36.5156 5.46094 36.1641 6.83984 36.1484 8.66016V10.1719C36.1484 12.0156 36.4766 13.4219 37.1328 14.3906C37.7969 15.3594 38.7656 15.8438 40.0391 15.8438C41.2031 15.8438 42.0781 15.582 42.6641 15.0586C43.25 14.5352 43.6211 13.6641 43.7773 12.4453H46.7305ZM63.0078 9.91406C63.0078 11.5859 62.7188 13.0547 62.1406 14.3203C61.5625 15.5781 60.7344 16.5469 59.6562 17.2266C58.5859 17.8984 57.3516 18.2344 55.9531 18.2344C54.5703 18.2344 53.3359 17.8984 52.25 17.2266C51.1719 16.5469 50.3359 15.582 49.7422 14.332C49.1562 13.082 48.8594 11.6406 48.8516 10.0078V9.04688C48.8516 7.38281 49.1445 5.91406 49.7305 4.64062C50.3242 3.36719 51.1562 2.39453 52.2266 1.72266C53.3047 1.04297 54.5391 0.703125 55.9297 0.703125C57.3203 0.703125 58.5508 1.03906 59.6211 1.71094C60.6992 2.375 61.5312 3.33594 62.1172 4.59375C62.7031 5.84375 63 7.30078 63.0078 8.96484V9.91406ZM60.043 9.02344C60.043 7.13281 59.6836 5.68359 58.9648 4.67578C58.2539 3.66797 57.2422 3.16406 55.9297 3.16406C54.6484 3.16406 53.6445 3.66797 52.918 4.67578C52.1992 5.67578 51.832 7.09375 51.8164 8.92969V9.91406C51.8164 11.7891 52.1797 13.2383 52.9062 14.2617C53.6406 15.2852 54.6562 15.7969 55.9531 15.7969C57.2656 15.7969 58.2734 15.2969 58.9766 14.2969C59.6875 13.2969 60.043 11.8359 60.043 9.91406V9.02344ZM74.8789 13.6055C74.8789 12.8555 74.6133 12.2773 74.082 11.8711C73.5586 11.4648 72.6094 11.0547 71.2344 10.6406C69.8594 10.2266 68.7656 9.76562 67.9531 9.25781C66.3984 8.28125 65.6211 7.00781 65.6211 5.4375C65.6211 4.0625 66.1797 2.92969 67.2969 2.03906C68.4219 1.14844 69.8789 0.703125 71.668 0.703125C72.8555 0.703125 73.9141 0.921875 74.8438 1.35938C75.7734 1.79687 76.5039 2.42188 77.0352 3.23438C77.5664 4.03906 77.832 4.93359 77.832 5.91797H74.8789C74.8789 5.02734 74.5977 4.33203 74.0352 3.83203C73.4805 3.32422 72.6836 3.07031 71.6445 3.07031C70.6758 3.07031 69.9219 3.27734 69.3828 3.69141C68.8516 4.10547 68.5859 4.68359 68.5859 5.42578C68.5859 6.05078 68.875 6.57422 69.4531 6.99609C70.0312 7.41016 70.9844 7.81641 72.3125 8.21484C73.6406 8.60547 74.707 9.05469 75.5117 9.5625C76.3164 10.0625 76.9062 10.6406 77.2812 11.2969C77.6562 11.9453 77.8438 12.707 77.8438 13.582C77.8438 15.0039 77.2969 16.1367 76.2031 16.9805C75.1172 17.8164 73.6406 18.2344 71.7734 18.2344C70.5391 18.2344 69.4023 18.0078 68.3633 17.5547C67.332 17.0938 66.5273 16.4609 65.9492 15.6562C65.3789 14.8516 65.0938 13.9141 65.0938 12.8438H68.0586C68.0586 13.8125 68.3789 14.5625 69.0195 15.0938C69.6602 15.625 70.5781 15.8906 71.7734 15.8906C72.8047 15.8906 73.5781 15.6836 74.0938 15.2695C74.6172 14.8477 74.8789 14.293 74.8789 13.6055ZM89.3633 13.6055C89.3633 12.8555 89.0977 12.2773 88.5664 11.8711C88.043 11.4648 87.0938 11.0547 85.7188 10.6406C84.3438 10.2266 83.25 9.76562 82.4375 9.25781C80.8828 8.28125 80.1055 7.00781 80.1055 5.4375C80.1055 4.0625 80.6641 2.92969 81.7812 2.03906C82.9062 1.14844 84.3633 0.703125 86.1523 0.703125C87.3398 0.703125 88.3984 0.921875 89.3281 1.35938C90.2578 1.79687 90.9883 2.42188 91.5195 3.23438C92.0508 4.03906 92.3164 4.93359 92.3164 5.91797H89.3633C89.3633 5.02734 89.082 4.33203 88.5195 3.83203C87.9648 3.32422 87.168 3.07031 86.1289 3.07031C85.1602 3.07031 84.4062 3.27734 83.8672 3.69141C83.3359 4.10547 83.0703 4.68359 83.0703 5.42578C83.0703 6.05078 83.3594 6.57422 83.9375 6.99609C84.5156 7.41016 85.4688 7.81641 86.7969 8.21484C88.125 8.60547 89.1914 9.05469 89.9961 9.5625C90.8008 10.0625 91.3906 10.6406 91.7656 11.2969C92.1406 11.9453 92.3281 12.707 92.3281 13.582C92.3281 15.0039 91.7812 16.1367 90.6875 16.9805C89.6016 17.8164 88.125 18.2344 86.2578 18.2344C85.0234 18.2344 83.8867 18.0078 82.8477 17.5547C81.8164 17.0938 81.0117 16.4609 80.4336 15.6562C79.8633 14.8516 79.5781 13.9141 79.5781 12.8438H82.543C82.543 13.8125 82.8633 14.5625 83.5039 15.0938C84.1445 15.625 85.0625 15.8906 86.2578 15.8906C87.2891 15.8906 88.0625 15.6836 88.5781 15.2695C89.1016 14.8477 89.3633 14.293 89.3633 13.6055ZM13.2148 28.9375V40.3398C13.2148 42.1523 12.6328 43.5898 11.4688 44.6523C10.3125 45.707 8.76953 46.2344 6.83984 46.2344C4.88672 46.2344 3.33594 45.7148 2.1875 44.6758C1.03906 43.6289 0.464844 42.1797 0.464844 40.3281V28.9375H3.41797V40.3516C3.41797 41.4922 3.70703 42.3633 4.28516 42.9648C4.86328 43.5664 5.71484 43.8672 6.83984 43.8672C9.12109 43.8672 10.2617 42.6641 10.2617 40.2578V28.9375H13.2148ZM29.9258 46H26.9609L19.3555 33.8945V46H16.3906V28.9375H19.3555L26.9844 41.0898V28.9375H29.9258V46ZM36.5586 46H33.6055V28.9375H36.5586V46ZM40.2031 46V28.9375H46.0508C47.9805 28.9375 49.4492 29.3242 50.457 30.0977C51.4648 30.8711 51.9688 32.0234 51.9688 33.5547C51.9688 34.3359 51.7578 35.0391 51.3359 35.6641C50.9141 36.2891 50.2969 36.7734 49.4844 37.1172C50.4062 37.3672 51.1172 37.8398 51.6172 38.5352C52.125 39.2227 52.3789 40.0508 52.3789 41.0195C52.3789 42.6211 51.8633 43.8516 50.832 44.7109C49.8086 45.5703 48.3398 46 46.4258 46H40.2031ZM43.168 38.3008V43.6328H46.4609C47.3906 43.6328 48.1172 43.4023 48.6406 42.9414C49.1641 42.4805 49.4258 41.8398 49.4258 41.0195C49.4258 39.2461 48.5195 38.3398 46.707 38.3008H43.168ZM43.168 36.1211H46.0742C46.9961 36.1211 47.7148 35.9141 48.2305 35.5C48.7539 35.0781 49.0156 34.4844 49.0156 33.7188C49.0156 32.875 48.7734 32.2656 48.2891 31.8906C47.8125 31.5156 47.0664 31.3281 46.0508 31.3281H43.168V36.1211ZM65.3164 38.3828H58.3086V43.6328H66.5V46H55.3438V28.9375H66.418V31.3281H58.3086V36.0391H65.3164V38.3828ZM82.4492 46H79.4844L71.8789 33.8945V46H68.9141V28.9375H71.8789L79.5078 41.0898V28.9375H82.4492V46Z" fill="white"/>
</svg>
